<svg width="60" height="50" viewBox="0 0 60 50" fill="none" xmlns="http://www.w3.org/2000/svg">
<path id="Vector" d="M56.8955 0.949448C56.3122 -0.271092 54.6453 -0.319913 53.9473 0.832276C50.7179 6.09524 44.9361 9.37605 38.3313 9.37605H29.9971C18.9544 9.37605 9.99525 17.7734 9.99525 28.1235C9.99525 28.807 10.0786 29.4612 10.1515 30.1252C16.798 25.6629 26.3926 21.8744 39.9981 21.8744C40.9148 21.8744 41.6649 22.5774 41.6649 23.4367C41.6649 24.2959 40.9148 24.999 39.9981 24.999C13.8081 24.999 2.70289 40.0458 0.244324 45.6993C-0.443241 47.2909 0.369336 49.1071 2.06741 49.7613C3.77591 50.4252 5.71359 49.6539 6.42199 48.072C6.57826 47.7205 8.59928 43.3949 13.9123 39.2256C17.2876 43.5121 23.7049 47.6033 32.1328 46.7636C48.4885 45.6505 60 31.9023 60 15.0686C60 10.167 58.8749 5.08952 56.8955 0.949448Z" fill="#D4D0D0"/>
</svg>
