<svg width="60" height="60" viewBox="0 0 60 60" fill="none" xmlns="http://www.w3.org/2000/svg">
<path id="Vector" d="M56.5433 12.8852L34.3138 1.06346C31.6473 -0.354487 28.3513 -0.354487 25.6848 1.06346L3.4567 12.8852C2.7442 13.2637 2.74821 14.2059 3.46473 14.5797L30 28.424L56.5366 14.5797C57.2531 14.2059 57.2571 13.2649 56.5433 12.8852ZM58.3969 18.1152L32.1429 31.8119V58.0404C32.1429 59.5498 33.9362 60.4908 35.3638 59.7314L55.7424 48.894C58.3781 47.4925 60 44.9168 60 42.1324V18.9648C60 18.2136 59.1107 17.7425 58.3969 18.1152ZM0 18.9648V42.1324C0 44.9179 1.62188 47.4925 4.25759 48.894L24.6362 59.7302C26.0652 60.4896 27.8571 59.5498 27.8571 58.0392V31.8119L1.60312 18.1152C0.889286 17.7425 0 18.2136 0 18.9648Z" fill="#D4D0D0"/>
</svg>
