<svg width="60" height="60" viewBox="0 0 60 60" fill="none" xmlns="http://www.w3.org/2000/svg">
<path id="Vector" d="M1.45458 17.3467L28.752 29.7297C29.5488 30.0918 30.45 30.0918 31.2469 29.7297L58.5443 17.3467C60.4837 16.4667 60.4837 13.5358 58.5443 12.6558L31.248 0.271574C30.8565 0.0926205 30.4311 0 30.0006 0C29.5701 0 29.1447 0.0926205 28.7531 0.271574L1.45458 12.6546C-0.484859 13.5347 -0.484859 16.4667 1.45458 17.3467ZM58.5454 27.6919L51.7381 24.6064L32.7961 33.1926C31.9101 33.5945 30.9691 33.7984 30 33.7984C29.0309 33.7984 28.091 33.5945 27.2039 33.1926L8.2631 24.6064L1.45458 27.6919C-0.484859 28.5708 -0.484859 31.5004 1.45458 32.3793L28.752 44.753C29.5488 45.1139 30.45 45.1139 31.2469 44.753L58.5454 32.3793C60.4849 31.5004 60.4849 28.5708 58.5454 27.6919ZM58.5454 42.6682L51.7638 39.5944L32.7961 48.1924C31.9101 48.5943 30.9691 48.7982 30 48.7982C29.0309 48.7982 28.091 48.5943 27.2039 48.1924L8.23732 39.5944L1.45458 42.6682C-0.484859 43.5471 -0.484859 46.4768 1.45458 47.3557L28.752 59.7293C29.5488 60.0902 30.45 60.0902 31.2469 59.7293L58.5454 47.3557C60.4849 46.4768 60.4849 43.5471 58.5454 42.6682Z" fill="#D4D0D0"/>
</svg>
