<svg width="60" height="50" viewBox="0 0 60 50" fill="none" xmlns="http://www.w3.org/2000/svg">
<path id="Vector" d="M19.5 31.25H55.5C56.325 31.25 57 30.5469 57 29.6875V4.6875C57 3.82812 56.325 3.125 55.5 3.125H42V15.625L37.5 12.5L33 15.625V3.125H19.5C18.675 3.125 18 3.82812 18 4.6875V29.6875C18 30.5469 18.675 31.25 19.5 31.25ZM58.5 37.5H12V1.5625C12 0.703125 11.325 0 10.5 0H1.5C0.675 0 0 0.703125 0 1.5625V4.6875C0 5.54688 0.675 6.25 1.5 6.25H6V42.1875C6 43.0469 6.675 43.75 7.5 43.75H15.2719C15.1031 44.2383 15 44.7656 15 45.3125C15 47.9004 17.0156 50 19.5 50C21.9844 50 24 47.9004 24 45.3125C24 44.7656 23.8875 44.2383 23.7281 43.75H42.2812C42.1125 44.2383 42.0094 44.7656 42.0094 45.3125C42.0094 47.9004 44.025 50 46.5094 50C48.9938 50 51.0094 47.9004 51.0094 45.3125C51.0094 44.7656 50.8969 44.2383 50.7375 43.75H58.5C59.325 43.75 60 43.0469 60 42.1875V39.0625C60 38.2031 59.325 37.5 58.5 37.5Z" fill="#D5D0D0"/>
</svg>
